<mxfile host="app.diagrams.net" modified="2024-05-26T08:45:43.254Z" agent="Mozilla/5.0 (Windows NT 10.0; Win64; x64; rv:125.0) Gecko/20100101 Firefox/125.0" version="24.4.8" etag="6MhF_a49x0fjxKrUMiWR" type="github">
  <diagram name="Page-1" id="zlYGtl-Eh83HLGlYRwwe">
    <mxGraphModel>
      <root>
        <mxCell id="0" />
        <mxCell id="1" parent="0" />
      </root>
    </mxGraphModel>
  </diagram>
</mxfile>
